<svg width="40" height="40" viewBox="0 0 40 40" fill="none" xmlns="http://www.w3.org/2000/svg">
<path d="M20 40C31.0457 40 40 31.0457 40 20C40 8.95431 31.0457 0 20 0C8.9543 0 0 8.95431 0 20C0 31.0457 8.9543 40 20 40Z" fill="#3A5A98"/>
<path d="M16.5481 12.5952C16.5481 13.21 16.5481 15.956 16.5481 15.956H14.0859V20.0657H16.5481V32.2773H21.6059V20.0657H24.9998C24.9998 20.0657 25.3178 18.0947 25.4716 15.9405C25.0299 15.9405 21.6251 15.9405 21.6251 15.9405C21.6251 15.9405 21.6251 13.5493 21.6251 13.1303C21.6251 12.7106 22.1763 12.1458 22.7215 12.1458C23.2658 12.1458 24.4141 12.1458 25.4773 12.1458C25.4773 11.5857 25.4773 9.65272 25.4773 7.86743C24.0578 7.86743 22.4428 7.86743 21.7305 7.86743C16.4228 7.86718 16.5481 11.9808 16.5481 12.5952Z" fill="white"/>
</svg>
