<svg width="40" height="40" viewBox="0 0 40 40" fill="none" xmlns="http://www.w3.org/2000/svg">
<path d="M20 40C31.0457 40 40 31.0457 40 20C40 8.95431 31.0457 0 20 0C8.95431 0 0 8.95431 0 20C0 31.0457 8.95431 40 20 40Z" fill="#43A1EB"/>
<path d="M31.2646 19.1385C32.863 19.0068 33.9467 18.2799 34.3641 17.2941C33.7872 17.6483 31.9975 18.0345 31.0091 17.6664C30.9609 17.4347 30.9068 17.2136 30.8538 17.015C30.1007 14.2493 27.5222 12.0219 24.8205 12.2906C25.039 12.2025 25.2614 12.1201 25.482 12.0466C25.7792 11.9398 27.5241 11.6557 27.2496 11.0399C27.0179 10.4984 24.8862 11.4494 24.4848 11.5738C25.0147 11.3746 25.8909 11.0316 25.9844 10.4229C25.1726 10.534 24.3759 10.918 23.7605 11.4763C23.9825 11.2366 24.1511 10.9451 24.1871 10.6313C22.0213 12.0143 20.7564 14.8028 19.7333 17.5079C18.9296 16.7293 18.2173 16.1158 17.5779 15.7753C15.7853 14.8136 13.642 13.8104 10.2772 12.5615C10.1739 13.6746 10.8276 15.1552 12.7114 16.1394C12.3031 16.0848 11.5576 16.207 10.9598 16.3497C11.2033 17.625 11.9968 18.6756 14.1474 19.1839C13.1648 19.2487 12.6571 19.4722 12.197 19.9541C12.6438 20.8411 13.736 21.885 15.6994 21.6705C13.5165 22.6115 14.8099 24.3551 16.5867 24.0949C13.5554 27.226 8.77604 26.9961 6.03174 24.3775C13.197 34.1412 28.7731 30.1515 31.0933 20.7472C32.8326 20.7618 33.8549 20.1448 34.4887 19.4646C33.4865 19.6348 32.0344 19.4592 31.2646 19.1385Z" fill="white"/>
</svg>
