<svg width="14" height="14" viewBox="0 0 14 14" fill="none" xmlns="http://www.w3.org/2000/svg">
<path d="M13.7163 1.64937L8.32857 7.03868L13.0977 12.3506C13.4747 12.7276 13.4747 13.3423 13.0977 13.7173C12.7226 14.0942 12.1079 14.0942 11.7329 13.7173L6.96377 8.40532L1.64948 13.7173C1.27249 14.0942 0.659679 14.0942 0.282745 13.7173C-0.0942485 13.3423 -0.0942485 12.7275 0.282745 12.3506L5.67051 6.96326L0.903282 1.64937C0.526288 1.2724 0.526288 0.65963 0.903282 0.282725C1.28028 -0.0941808 1.89309 -0.0942416 2.27002 0.282725L7.03914 5.59662L12.3515 0.282725C12.7285 -0.0942416 13.3413 -0.0942416 13.7182 0.282725C14.0952 0.65963 14.0933 1.2724 13.7163 1.64937Z" fill="#8C8E91"/>
</svg>
