<svg width="49" height="40" viewBox="0 0 49 40" fill="none" xmlns="http://www.w3.org/2000/svg">
<path fill-rule="evenodd" clip-rule="evenodd" d="M46.5846 6.6593H46.3107C46.1605 6.04664 45.9191 5.46917 45.5995 4.94398L45.7939 4.74961C46.3632 4.1803 46.3632 3.25724 45.7939 2.68812C45.2246 2.11881 44.3015 2.11881 43.7324 2.68812L43.538 2.88249C43.0128 2.56295 42.4356 2.32154 41.8227 2.17129V1.89723C41.8227 1.09215 41.17 0.439453 40.3649 0.439453C39.5598 0.439453 38.9072 1.09215 38.9072 1.89723V2.1711C38.2945 2.32134 37.717 2.56275 37.1918 2.8823L36.9975 2.68793C36.4282 2.11862 35.5051 2.11862 34.936 2.68793C34.3667 3.25724 34.3667 4.1803 34.936 4.74942L35.1303 4.94379C34.8108 5.46898 34.5694 6.04626 34.4191 6.6591H34.1453C33.3402 6.6591 32.6875 7.3118 32.6875 8.11688C32.6875 8.92196 33.3402 9.57466 34.1453 9.57466H34.4191C34.5694 10.1873 34.8108 10.7648 35.1303 11.29L34.936 11.4843C34.3667 12.0537 34.3667 12.9767 34.936 13.5458C35.2205 13.8304 35.5937 13.9729 35.9667 13.9729C36.3397 13.9729 36.7129 13.8306 36.9975 13.5458L37.1918 13.3515C37.717 13.671 38.2943 13.9124 38.9072 14.0627V14.3365C38.9072 15.1416 39.5598 15.7943 40.3649 15.7943C41.17 15.7943 41.8227 15.1416 41.8227 14.3365V14.0627C42.4354 13.9124 43.0128 13.671 43.538 13.3515L43.7324 13.5458C44.0169 13.8304 44.3901 13.9729 44.7631 13.9729C45.1361 13.9729 45.5093 13.8306 45.7939 13.5458C46.3632 12.9765 46.3632 12.0535 45.7939 11.4843L45.5995 11.29C45.9191 10.7648 46.1605 10.1875 46.3107 9.57466H46.5846C47.3897 9.57466 48.0424 8.92196 48.0424 8.11688C48.0424 7.3118 47.3897 6.6593 46.5846 6.6593ZM40.3647 11.3242C38.5964 11.3242 37.1576 9.88545 37.1576 8.11707C37.1576 6.34869 38.5964 4.90997 40.3647 4.90997C42.1331 4.90997 43.5718 6.34869 43.5718 8.11707C43.5718 9.88545 42.1331 11.3242 40.3647 11.3242ZM25.0483 20.3369C25.0483 21.142 24.3956 21.7947 23.5905 21.7947H21.8221C21.5897 23.2546 21.013 24.6006 20.1791 25.7487L21.4332 27.0028C22.0025 27.5719 22.0025 28.495 21.4332 29.0643C21.1486 29.3491 20.7754 29.4913 20.4024 29.4913C20.0294 29.4913 19.6563 29.3489 19.3717 29.0643L18.1176 27.8102C16.9693 28.6439 15.6235 29.2206 14.1636 29.4532V31.2216C14.1636 32.0267 13.5109 32.6794 12.7058 32.6794C11.9007 32.6794 11.248 32.0267 11.248 31.2216V29.4532C9.78809 29.2208 8.44208 28.6441 7.29393 27.8102L6.03986 29.0643C5.7553 29.3491 5.38211 29.4913 5.00911 29.4913C4.63612 29.4913 4.26293 29.3489 3.97837 29.0643C3.40906 28.4952 3.40906 27.5721 3.97837 27.0028L5.23245 25.7487C4.39879 24.6004 3.8221 23.2546 3.58943 21.7947H1.82106C1.01598 21.7947 0.363281 21.142 0.363281 20.3369C0.363281 19.5318 1.01598 18.8791 1.82106 18.8791H3.58943C3.8219 17.4192 4.3986 16.0732 5.23245 14.925L3.97837 13.671C3.40906 13.1018 3.40906 12.1788 3.97837 11.6095C4.54749 11.0402 5.47055 11.0402 6.03986 11.6095L7.29393 12.8636C8.44227 12.0299 9.78809 11.4532 11.248 11.2205V9.45216C11.248 8.64708 11.9007 7.99438 12.7058 7.99438C13.5109 7.99438 14.1636 8.64708 14.1636 9.45216V11.2205C15.6235 11.453 16.9695 12.0297 18.1176 12.8636L19.3717 11.6095C19.9408 11.0402 20.8639 11.0402 21.4332 11.6095C22.0025 12.1786 22.0025 13.1017 21.4332 13.671L20.1791 14.925C21.0128 16.0734 21.5895 17.4192 21.8221 18.8791H23.5905C24.3956 18.8791 25.0483 19.5318 25.0483 20.3369ZM6.38875 20.3369C6.38875 23.82 9.22267 26.6539 12.7058 26.6539C16.1889 26.6539 19.0228 23.82 19.0228 20.3369C19.0228 16.8538 16.1889 14.0199 12.7058 14.0199C9.22267 14.0199 6.38875 16.8538 6.38875 20.3369ZM9.88672 20.3369C9.88672 18.7829 11.1511 17.5186 12.7051 17.5186C14.2591 17.5186 15.5235 18.7829 15.5235 20.3369C15.5235 21.8909 14.2591 23.1553 12.7051 23.1553C11.1511 23.1553 9.88672 21.8909 9.88672 20.3369ZM12.6079 20.3369C12.6079 20.3906 12.6514 20.4341 12.7051 20.4341C12.7587 20.4341 12.8023 20.3906 12.8023 20.3369C12.8023 20.2833 12.7587 20.2397 12.7051 20.2397C12.6514 20.2397 12.6079 20.2833 12.6079 20.3369ZM41.1212 30.072C41.8184 29.6692 42.71 29.9081 43.1125 30.6055C43.515 31.3027 43.2762 32.1943 42.5789 32.5968L42.288 32.7648C42.3467 33.0565 42.3778 33.358 42.3778 33.6668C42.3778 33.9757 42.3467 34.2772 42.288 34.5689L42.5789 34.7369C43.2762 35.1394 43.515 36.031 43.1125 36.7282C42.8425 37.1956 42.3525 37.4573 41.8487 37.4573C41.6015 37.4573 41.3507 37.3943 41.1212 37.2617L40.8273 37.092C40.3773 37.4891 39.8486 37.7986 39.268 37.9947V38.3317C39.268 39.1368 38.6153 39.7895 37.8103 39.7895C37.0052 39.7895 36.3525 39.1368 36.3525 38.3317V37.9947C35.7719 37.7986 35.2434 37.4889 34.7933 37.092L34.4994 37.2617C34.2698 37.3943 34.0191 37.4573 33.7718 37.4573C33.268 37.4573 32.778 37.1958 32.508 36.7282C32.1055 36.031 32.3444 35.1394 33.0416 34.7369L33.3326 34.5689C33.2739 34.2772 33.2428 33.9757 33.2428 33.6668C33.2428 33.358 33.2739 33.0565 33.3326 32.7648L33.0416 32.5968C32.3444 32.1943 32.1055 31.3027 32.508 30.6055C32.9106 29.9083 33.8022 29.6692 34.4994 30.072L34.7933 30.2417C35.2432 29.8446 35.7719 29.5351 36.3525 29.339V29.002C36.3525 28.1969 37.0052 27.5442 37.8103 27.5442C38.6153 27.5442 39.268 28.1969 39.268 29.002V29.339C39.8486 29.5351 40.3771 29.8448 40.8273 30.2417L41.1212 30.072ZM37.8101 32.0147C36.8991 32.0147 36.1579 32.7558 36.1579 33.6668C36.1579 34.5779 36.8991 35.319 37.8101 35.319C38.7211 35.319 39.4622 34.5779 39.4622 33.6668C39.4622 32.7558 38.7211 32.0147 37.8101 32.0147Z" fill="url(#paint0_linear)"/>
<defs>
<linearGradient id="paint0_linear" x1="45.9843" y1="24.0495" x2="5.20245" y2="-10.5275" gradientUnits="userSpaceOnUse">
<stop stop-color="#17EAD9"/>
<stop offset="1" stop-color="#6078EA"/>
</linearGradient>
</defs>
</svg>
