<svg width="88" height="14" viewBox="0 0 88 14" fill="none" xmlns="http://www.w3.org/2000/svg">
<path opacity="0.7" d="M2.52441 11.2246H8.33398V13H0.300781V0.203125H2.52441V11.2246ZM19.6895 6.93555C19.6895 8.18945 19.4727 9.29102 19.0391 10.2402C18.6055 11.1836 17.9844 11.9102 17.1758 12.4199C16.373 12.9238 15.4473 13.1758 14.3984 13.1758C13.3613 13.1758 12.4355 12.9238 11.6211 12.4199C10.8125 11.9102 10.1855 11.1865 9.74023 10.249C9.30078 9.31152 9.07812 8.23047 9.07227 7.00586V6.28516C9.07227 5.03711 9.29199 3.93555 9.73145 2.98047C10.1768 2.02539 10.8008 1.2959 11.6035 0.791992C12.4121 0.282227 13.3379 0.0273438 14.3809 0.0273438C15.4238 0.0273438 16.3467 0.279297 17.1494 0.783203C17.958 1.28125 18.582 2.00195 19.0215 2.94531C19.4609 3.88281 19.6836 4.97559 19.6895 6.22363V6.93555ZM17.4658 6.26758C17.4658 4.84961 17.1963 3.7627 16.6572 3.00684C16.124 2.25098 15.3652 1.87305 14.3809 1.87305C13.4199 1.87305 12.667 2.25098 12.1221 3.00684C11.583 3.75684 11.3076 4.82031 11.2959 6.19727V6.93555C11.2959 8.3418 11.5684 9.42871 12.1133 10.1963C12.6641 10.9639 13.4258 11.3477 14.3984 11.3477C15.3828 11.3477 16.1387 10.9727 16.666 10.2227C17.1992 9.47266 17.4658 8.37695 17.4658 6.93555V6.26758ZM31.7129 11.3389C31.25 11.9424 30.6084 12.3994 29.7881 12.71C28.9678 13.0205 28.0361 13.1758 26.9932 13.1758C25.9209 13.1758 24.9717 12.9326 24.1455 12.4463C23.3193 11.96 22.6807 11.2656 22.2295 10.3633C21.7842 9.45508 21.5527 8.39746 21.5352 7.19043V6.18848C21.5352 4.25488 21.998 2.74609 22.9238 1.66211C23.8496 0.572266 25.1416 0.0273438 26.7998 0.0273438C28.2236 0.0273438 29.3545 0.378906 30.1924 1.08203C31.0303 1.78516 31.5342 2.79883 31.7041 4.12305H29.5244C29.2783 2.58203 28.3848 1.81152 26.8438 1.81152C25.8477 1.81152 25.0889 2.17188 24.5674 2.89258C24.0518 3.60742 23.7852 4.65918 23.7676 6.04785V7.03223C23.7676 8.41504 24.0576 9.49023 24.6377 10.2578C25.2236 11.0195 26.0352 11.4004 27.0723 11.4004C28.209 11.4004 29.0176 11.1426 29.498 10.627V8.12207H26.8613V6.43457H31.7129V11.3389ZM44.3691 6.93555C44.3691 8.18945 44.1523 9.29102 43.7188 10.2402C43.2852 11.1836 42.6641 11.9102 41.8555 12.4199C41.0527 12.9238 40.127 13.1758 39.0781 13.1758C38.041 13.1758 37.1152 12.9238 36.3008 12.4199C35.4922 11.9102 34.8652 11.1865 34.4199 10.249C33.9805 9.31152 33.7578 8.23047 33.752 7.00586V6.28516C33.752 5.03711 33.9717 3.93555 34.4111 2.98047C34.8564 2.02539 35.4805 1.2959 36.2832 0.791992C37.0918 0.282227 38.0176 0.0273438 39.0605 0.0273438C40.1035 0.0273438 41.0264 0.279297 41.8291 0.783203C42.6377 1.28125 43.2617 2.00195 43.7012 2.94531C44.1406 3.88281 44.3633 4.97559 44.3691 6.22363V6.93555ZM42.1455 6.26758C42.1455 4.84961 41.876 3.7627 41.3369 3.00684C40.8037 2.25098 40.0449 1.87305 39.0605 1.87305C38.0996 1.87305 37.3467 2.25098 36.8018 3.00684C36.2627 3.75684 35.9873 4.82031 35.9756 6.19727V6.93555C35.9756 8.3418 36.248 9.42871 36.793 10.1963C37.3438 10.9639 38.1055 11.3477 39.0781 11.3477C40.0625 11.3477 40.8184 10.9727 41.3457 10.2227C41.8789 9.47266 42.1455 8.37695 42.1455 6.93555V6.26758ZM55.0742 1.99609H51.084V13H48.8779V1.99609H44.9229V0.203125H55.0742V1.99609ZM61.0771 6.26758L64.0215 0.203125H66.4824L62.1934 8.28906V13H59.9609V8.28906L55.6631 0.203125H58.1328L61.0771 6.26758ZM70.0947 8.24512V13H67.8711V0.203125H72.7666C74.1963 0.203125 75.3301 0.575195 76.168 1.31934C77.0117 2.06348 77.4336 3.04785 77.4336 4.27246C77.4336 5.52637 77.0205 6.50195 76.1943 7.19922C75.374 7.89648 74.2227 8.24512 72.7402 8.24512H70.0947ZM70.0947 6.46094H72.7666C73.5576 6.46094 74.1611 6.27637 74.5771 5.90723C74.9932 5.53223 75.2012 4.99316 75.2012 4.29004C75.2012 3.59863 74.9902 3.04785 74.5684 2.6377C74.1465 2.22168 73.5664 2.00781 72.8281 1.99609H70.0947V6.46094ZM86.8643 7.28711H81.6084V11.2246H87.752V13H79.3848V0.203125H87.6904V1.99609H81.6084V5.5293H86.8643V7.28711Z" fill="white"/>
</svg>
