<svg width="16" height="15" viewBox="0 0 16 15" fill="none" xmlns="http://www.w3.org/2000/svg">
<path d="M12.1797 8.32031H3.82031V6.67969H12.1797V8.32031ZM13.8203 0H2.17969C1.6849 0 1.28125 0.15625 0.96875 0.46875C0.65625 0.78125 0.5 1.1849 0.5 1.67969V13.3203C0.5 13.7891 0.65625 14.1927 0.96875 14.5312C1.30729 14.8438 1.71094 15 2.17969 15H13.8203C14.2891 15 14.6797 14.8438 14.9922 14.5312C15.3307 14.1927 15.5 13.7891 15.5 13.3203V1.67969C15.5 1.1849 15.3307 0.78125 14.9922 0.46875C14.6797 0.15625 14.2891 0 13.8203 0Z" fill="url(#paint0_linear)"/>
<defs>
<linearGradient id="paint0_linear" x1="17.1367" y1="9" x2="-2.60238" y2="-4.81227" gradientUnits="userSpaceOnUse">
<stop stop-color="#17EAD9"/>
<stop offset="1" stop-color="#6078EA"/>
</linearGradient>
</defs>
</svg>
